HIERARCHY
ROOT Hips
{
	OFFSET 0.000000 0.000000 0.000000
	CHANNELS 6 Xposition Yposition Zposition Xrotation Yrotation Zrotation
	JOINT LeftUpLeg_virtual
	{
		OFFSET 0.000000 0.000000 0.000000
		CHANNELS 3 Xrotation Yrotation Zrotation
		JOINT LeftUpLeg
		{
			OFFSET 11.394100 -6.187798 -0.413800
			CHANNELS 3 Xrotation Yrotation Zrotation
			JOINT LeftLeg
			{
				OFFSET 0.430247 -32.302673 3.732800
				CHANNELS 3 Xrotation Yrotation Zrotation
				JOINT LeftFoot
				{
					OFFSET -0.430247 -48.264931 -6.423300
					CHANNELS 3 Xrotation Yrotation Zrotation
					JOINT LeftToeBase
					{
						OFFSET 4.230900 -16.068199 23.438400
						CHANNELS 3 Xrotation Yrotation Zrotation
						JOINT LeftToe_End
						{
							OFFSET 4.510700 0.695400 19.974600
							CHANNELS 3 Xrotation Yrotation Zrotation
							End Site
							{
								OFFSET 0 0 0
							}
						}
					}
				}
			}
		}
	}
	JOINT RightUpLeg_virtual
	{
		OFFSET 0.000000 0.000000 0.000000
		CHANNELS 3 Xrotation Yrotation Zrotation
		JOINT RightUpLeg
		{
			OFFSET -11.333700 -6.187798 -0.413800
			CHANNELS 3 Xrotation Yrotation Zrotation
			JOINT RightLeg
			{
				OFFSET -0.430392 -32.302628 3.733000
				CHANNELS 3 Xrotation Yrotation Zrotation
				JOINT RightFoot
				{
					OFFSET 0.430392 -48.264973 -6.423500
					CHANNELS 3 Xrotation Yrotation Zrotation
					JOINT RightToeBase
					{
						OFFSET -4.230900 -16.068199 23.438400
						CHANNELS 3 Xrotation Yrotation Zrotation
						JOINT RightToe_End
						{
							OFFSET -4.510700 0.695400 19.974600
							CHANNELS 3 Xrotation Yrotation Zrotation
							End Site
							{
								OFFSET 0 0 0
							}
						}
					}
				}
			}
		}
	}
	JOINT Spine_virtual
	{
		OFFSET 0.000000 0.000000 0.000000
		CHANNELS 3 Xrotation Yrotation Zrotation
		JOINT Spine
		{
			OFFSET -0.002400 12.777504 0.315300
			CHANNELS 3 Xrotation Yrotation Zrotation
			JOINT Spine1
			{
				OFFSET -0.002067 5.816869 0.032633
				CHANNELS 3 Xrotation Yrotation Zrotation
				JOINT Spine1_split
				{
					OFFSET -0.002067 5.816869 0.032633
					CHANNELS 3 Xrotation Yrotation Zrotation
					JOINT Spine2
					{
						OFFSET -0.002067 5.816869 0.032633
						CHANNELS 3 Xrotation Yrotation Zrotation
						JOINT Neck_virtual
						{
							OFFSET 0.000000 0.000000 0.000000
							CHANNELS 3 Xrotation Yrotation Zrotation
							JOINT Neck
							{
								OFFSET -0.003700 21.199493 -0.826900
								CHANNELS 3 Xrotation Yrotation Zrotation
								JOINT Head
								{
									OFFSET 0.000000 20.442200 4.834800
									CHANNELS 3 Xrotation Yrotation Zrotation
									JOINT HeadTop_End
									{
										OFFSET 0.000000 34.668396 4.968400
										CHANNELS 3 Xrotation Yrotation Zrotation
										End Site
										{
											OFFSET 0 0 0
										}
									}
								}
							}
						}
						JOINT LeftShoulder_virtual
						{
							OFFSET 0.000000 0.000000 0.000000
							CHANNELS 3 Xrotation Yrotation Zrotation
							JOINT LeftShoulder
							{
								OFFSET 3.288150 8.794197 -1.372250
								CHANNELS 3 Xrotation Yrotation Zrotation
								JOINT LeftShoulder_split
								{
									OFFSET 3.288150 8.794197 -1.372250
									CHANNELS 3 Xrotation Yrotation Zrotation
									JOINT LeftArm
									{
										OFFSET 11.953299 -2.279007 -0.146200
										CHANNELS 3 Xrotation Yrotation Zrotation
										JOINT LeftForeArm
										{
											OFFSET 18.448900 0.000000 0.000000
											CHANNELS 3 Xrotation Yrotation Zrotation
											JOINT LeftHand
											{
												OFFSET 29.527798 0.000000 0.000000
												CHANNELS 3 Xrotation Yrotation Zrotation
												End Site
												{
													OFFSET 0 0 0
												}
											}
										}
									}
								}
							}
						}
						JOINT RightShoulder_virtual
						{
							OFFSET 0.000000 0.000000 0.000000
							CHANNELS 3 Xrotation Yrotation Zrotation
							JOINT RightShoulder
							{
								OFFSET -3.249400 8.794197 -1.372250
								CHANNELS 3 Xrotation Yrotation Zrotation
								JOINT RightShoulder_split
								{
									OFFSET -3.249400 8.794197 -1.372250
									CHANNELS 3 Xrotation Yrotation Zrotation
									JOINT RightArm
									{
										OFFSET -11.953299 -2.279007 -0.146200
										CHANNELS 3 Xrotation Yrotation Zrotation
										JOINT RightForeArm
										{
											OFFSET -18.448900 0.000000 0.000000
											CHANNELS 3 Xrotation Yrotation Zrotation
											JOINT RightHand
											{
												OFFSET -29.527802 0.000000 0.000000
												CHANNELS 3 Xrotation Yrotation Zrotation
												End Site
												{
													OFFSET 0 0 0
												}
											}
										}
									}
								}
							}
						}
					}
				}
			}
		}
	}
}
MOTION
Frames: 5
Frame Time: 0.03333333
-0.417848 85.632576 0.299603 0.000000 0.000000 0.000000 11.705712 -49.521699 11.404209 -68.323325 24.998988 43.261756 44.537755 -19.585067 3.202435 7.537787 0.565782 -11.518789 -0.806801 -6.108575 0.921057 0.000000 0.000000 0.000000 11.705712 -49.521699 11.404209 -38.056533 1.958758 -24.202577 52.398630 1.036727 -6.829691 -21.041970 -1.757688 25.309512 0.528336 2.970024 1.471354 0.000000 0.000000 0.000000 11.705712 -49.521699 11.404209 10.978867 2.848562 -2.161163 6.100707 5.566543 -4.284685 0.000000 0.000000 0.000000 0.000000 0.000000 0.000000 -5.786918 6.328140 -3.046179 2.318901 9.363318 -0.265302 -4.146743 23.161899 -3.523335 0.000000 0.000000 0.000000 -5.786918 6.328140 -3.046179 -1.875344 -16.181743 -2.870471 0.000000 0.000000 0.000000 -10.644672 2.164755 -45.510636 -22.862387 -25.786252 -15.871667 0.000000 0.000000 0.000000 -5.786918 6.328140 -3.046179 -5.074771 24.344983 1.482929 0.000000 0.000000 0.000000 6.642455 -34.735016 57.610419 -21.032044 44.833857 19.961747 0.000000 0.000000 0.000000 
-0.464450 85.775017 0.052319 0.000000 0.000000 0.000000 11.371939 -50.171339 11.032109 -67.797892 25.083576 43.740467 43.974021 -19.443665 3.162185 7.718436 0.594685 -11.794227 -0.704620 -5.969791 0.841883 0.000000 0.000000 0.000000 11.371939 -50.171339 11.032109 -38.115871 1.750981 -23.882564 52.309892 1.397823 -6.798625 -20.875435 -1.381385 24.924337 0.528307 2.970073 1.471361 0.000000 0.000000 0.000000 11.371939 -50.171339 11.032109 10.933961 2.842310 -2.176113 5.754457 5.620923 -4.465464 0.000000 0.000000 0.000000 0.000000 0.000000 0.000000 -6.114668 6.395250 -3.246988 2.473469 9.737920 -0.469672 -4.007684 23.494372 -3.699873 0.000000 0.000000 0.000000 -6.114668 6.395250 -3.246988 -1.856185 -16.125030 -2.793415 0.000000 0.000000 0.000000 -9.304246 3.610382 -44.990603 -23.777480 -29.920696 -18.575210 0.000000 0.000000 0.000000 -6.114668 6.395250 -3.246988 -5.081648 24.149906 1.470716 0.000000 0.000000 0.000000 7.290161 -35.178944 57.904486 -21.255084 45.591175 20.253118 0.000000 0.000000 0.000000 
-0.533514 85.921349 -0.172894 0.000000 0.000000 0.000000 11.174719 -50.844215 10.835689 -67.229265 25.222374 44.078629 43.392363 -19.221711 3.206863 7.860627 0.676871 -12.155607 -0.604966 -5.850988 0.764767 0.000000 0.000000 0.000000 11.174719 -50.844215 10.835689 -38.241953 1.621182 -23.607101 52.219474 1.762455 -6.763045 -20.714178 -1.009937 24.549023 0.528356 2.970032 1.471338 0.000000 0.000000 0.000000 11.174719 -50.844215 10.835689 10.903982 2.809532 -2.181726 5.549814 5.637683 -4.562773 0.000000 0.000000 0.000000 0.000000 0.000000 0.000000 -6.308811 6.419478 -3.362158 2.157815 10.267391 -0.535476 -3.095859 23.970149 -4.101395 0.000000 0.000000 0.000000 -6.308811 6.419478 -3.362158 -1.847867 -16.070619 -2.774189 0.000000 0.000000 0.000000 -8.282006 4.767131 -44.394225 -24.638243 -33.133804 -20.826539 0.000000 0.000000 0.000000 -6.308811 6.419478 -3.362158 -4.969660 24.003423 1.112968 0.000000 0.000000 0.000000 9.818356 -37.442404 58.296327 -23.000382 49.695948 22.598079 0.000000 0.000000 0.000000 
-0.624264 86.066917 -0.377922 0.000000 0.000000 0.000000 11.208820 -51.566087 10.887600 -66.736528 25.445542 44.445813 42.776512 -18.983164 3.205344 7.983248 0.778185 -12.522516 -0.531878 -5.752346 0.718533 0.000000 0.000000 0.000000 11.208820 -51.566087 10.887600 -38.506817 1.590332 -23.351309 52.137153 2.135137 -6.727452 -20.550432 -0.637323 24.181762 0.528325 2.970024 1.471337 0.000000 0.000000 0.000000 11.208820 -51.566087 10.887600 10.879141 2.759759 -2.198289 5.370468 5.615230 -4.602950 0.000000 0.000000 0.000000 0.000000 0.000000 0.000000 -6.485332 6.402645 -3.425194 1.587707 10.749026 -0.621675 -2.442088 24.425679 -4.382237 0.000000 0.000000 0.000000 -6.485332 6.402645 -3.425194 -1.832331 -15.909969 -2.693249 0.000000 0.000000 0.000000 -7.601340 5.440237 -43.854558 -25.343777 -35.396404 -22.608131 0.000000 0.000000 0.000000 -6.485332 6.402645 -3.425194 -4.851216 23.775673 0.768369 0.000000 0.000000 0.000000 11.890567 -39.683262 58.329467 -25.251455 53.552713 25.231673 0.000000 0.000000 0.000000 
-0.722809 86.210236 -0.571392 0.000000 0.000000 0.000000 11.335849 -52.313682 11.054741 -66.236285 25.705116 44.773068 42.152516 -18.705807 3.213207 8.089400 0.901645 -12.913350 -0.446892 -5.652569 0.658480 0.000000 0.000000 0.000000 11.335849 -52.313682 11.054741 -38.822457 1.608539 -23.114730 52.060846 2.514708 -6.692178 -20.384730 -0.263940 23.822020 0.528341 2.970086 1.471352 0.000000 0.000000 0.000000 11.335849 -52.313682 11.054741 10.849316 2.716202 -2.220968 5.287552 5.515832 -4.597274 0.000000 0.000000 0.000000 0.000000 0.000000 0.000000 -6.569710 6.308096 -3.437967 1.078284 11.188305 -0.459417 -1.508091 24.996797 -5.277518 0.000000 0.000000 0.000000 -6.569710 6.308096 -3.437967 -1.778187 -15.995511 -2.308535 0.000000 0.000000 0.000000 -6.990165 6.173960 -43.710916 -25.996614 -37.298492 -23.847648 0.000000 0.000000 0.000000 -6.569710 6.308096 -3.437967 -4.645107 23.425681 0.308006 0.000000 0.000000 0.000000 13.145903 -41.827532 57.974782 -27.628472 56.724704 27.655064 0.000000 0.000000 0.000000 
